<svg width="40" height="40" viewBox="0 0 40 40" fill="none" xmlns="http://www.w3.org/2000/svg">
<circle cx="20" cy="20" r="20" fill="#A9DEDD"/>
<circle cx="20" cy="20" r="18" fill="#44ABA6"/>
<g clip-path="url(#clip0_538_1136)">
<path fill-rule="evenodd" clip-rule="evenodd" d="M23.3291 19.0037C23.3834 19.0578 23.4265 19.1222 23.4559 19.1931C23.4853 19.2639 23.5005 19.3399 23.5005 19.4167C23.5005 19.4934 23.4853 19.5694 23.4559 19.6402C23.4265 19.7111 23.3834 19.7755 23.3291 19.8297L19.8291 23.3297C19.7749 23.384 19.7105 23.4271 19.6397 23.4565C19.5688 23.4859 19.4928 23.501 19.4161 23.501C19.3394 23.501 19.2634 23.4859 19.1925 23.4565C19.1217 23.4271 19.0573 23.384 19.0031 23.3297L17.2531 21.5797C17.1989 21.5254 17.1558 21.461 17.1265 21.3902C17.0971 21.3193 17.082 21.2434 17.082 21.1667C17.082 21.0899 17.0971 21.014 17.1265 20.9431C17.1558 20.8723 17.1989 20.8079 17.2531 20.7537C17.3626 20.6441 17.5112 20.5826 17.6661 20.5826C17.7428 20.5826 17.8188 20.5977 17.8896 20.627C17.9605 20.6564 18.0249 20.6994 18.0791 20.7537L19.4161 22.0918L22.5031 19.0037C22.5573 18.9493 22.6217 18.9062 22.6925 18.8768C22.7634 18.8474 22.8394 18.8323 22.9161 18.8323C22.9928 18.8323 23.0688 18.8474 23.1397 18.8768C23.2105 18.9062 23.2749 18.9493 23.3291 19.0037Z" fill="#F9F8F8"/>
<path d="M15.333 12.4166H14.1663C13.5475 12.4166 12.954 12.6625 12.5164 13.1C12.0788 13.5376 11.833 14.1311 11.833 14.75V27C11.833 27.6188 12.0788 28.2123 12.5164 28.6499C12.954 29.0875 13.5475 29.3333 14.1663 29.3333H25.833C26.4518 29.3333 27.0453 29.0875 27.4829 28.6499C27.9205 28.2123 28.1663 27.6188 28.1663 27V14.75C28.1663 14.1311 27.9205 13.5376 27.4829 13.1C27.0453 12.6625 26.4518 12.4166 25.833 12.4166H24.6663V13.5833H25.833C26.1424 13.5833 26.4392 13.7062 26.658 13.925C26.8768 14.1438 26.9997 14.4405 26.9997 14.75V27C26.9997 27.3094 26.8768 27.6061 26.658 27.8249C26.4392 28.0437 26.1424 28.1666 25.833 28.1666H14.1663C13.8569 28.1666 13.5602 28.0437 13.3414 27.8249C13.1226 27.6061 12.9997 27.3094 12.9997 27V14.75C12.9997 14.4405 13.1226 14.1438 13.3414 13.925C13.5602 13.7062 13.8569 13.5833 14.1663 13.5833H15.333V12.4166Z" fill="#F9F8F8"/>
<path d="M21.75 11.8333C21.9047 11.8333 22.0531 11.8948 22.1625 12.0041C22.2719 12.1135 22.3333 12.2619 22.3333 12.4166V13.5833C22.3333 13.738 22.2719 13.8864 22.1625 13.9958C22.0531 14.1052 21.9047 14.1666 21.75 14.1666H18.25C18.0953 14.1666 17.9469 14.1052 17.8375 13.9958C17.7281 13.8864 17.6667 13.738 17.6667 13.5833V12.4166C17.6667 12.2619 17.7281 12.1135 17.8375 12.0041C17.9469 11.8948 18.0953 11.8333 18.25 11.8333H21.75ZM18.25 10.6666C17.7859 10.6666 17.3408 10.851 17.0126 11.1792C16.6844 11.5074 16.5 11.9525 16.5 12.4166V13.5833C16.5 14.0474 16.6844 14.4925 17.0126 14.8207C17.3408 15.1489 17.7859 15.3333 18.25 15.3333H21.75C22.2141 15.3333 22.6592 15.1489 22.9874 14.8207C23.3156 14.4925 23.5 14.0474 23.5 13.5833V12.4166C23.5 11.9525 23.3156 11.5074 22.9874 11.1792C22.6592 10.851 22.2141 10.6666 21.75 10.6666H18.25Z" fill="#F9F8F8"/>
</g>
<defs>
<clipPath id="clip0_538_1136">
<rect width="18.6667" height="18.6667" fill="white" transform="translate(10.6665 10.6666)"/>
</clipPath>
</defs>
</svg>
