<svg width="11" height="11" viewBox="0 0 11 11" fill="none" xmlns="http://www.w3.org/2000/svg">
<g clip-path="url(#clip0_296_1059)">
<path d="M9.625 0.6875C9.80734 0.6875 9.9822 0.759933 10.1111 0.888864C10.2401 1.0178 10.3125 1.19266 10.3125 1.375V9.625C10.3125 9.80734 10.2401 9.9822 10.1111 10.1111C9.9822 10.2401 9.80734 10.3125 9.625 10.3125H1.375C1.19266 10.3125 1.0178 10.2401 0.888864 10.1111C0.759933 9.9822 0.6875 9.80734 0.6875 9.625V1.375C0.6875 1.19266 0.759933 1.0178 0.888864 0.888864C1.0178 0.759933 1.19266 0.6875 1.375 0.6875H9.625ZM1.375 0C1.01033 0 0.660591 0.144866 0.402728 0.402728C0.144866 0.660591 0 1.01033 0 1.375L0 9.625C0 9.98967 0.144866 10.3394 0.402728 10.5973C0.660591 10.8551 1.01033 11 1.375 11H9.625C9.98967 11 10.3394 10.8551 10.5973 10.5973C10.8551 10.3394 11 9.98967 11 9.625V1.375C11 1.01033 10.8551 0.660591 10.5973 0.402728C10.3394 0.144866 9.98967 0 9.625 0L1.375 0Z" fill="#F9F8F8"/>
<path d="M5.5 2.75C5.59117 2.75 5.6786 2.78622 5.74307 2.85068C5.80753 2.91515 5.84375 3.00258 5.84375 3.09375V5.15625H7.90625C7.99742 5.15625 8.08485 5.19247 8.14932 5.25693C8.21378 5.3214 8.25 5.40883 8.25 5.5C8.25 5.59117 8.21378 5.6786 8.14932 5.74307C8.08485 5.80753 7.99742 5.84375 7.90625 5.84375H5.84375V7.90625C5.84375 7.99742 5.80753 8.08485 5.74307 8.14932C5.6786 8.21378 5.59117 8.25 5.5 8.25C5.40883 8.25 5.3214 8.21378 5.25693 8.14932C5.19247 8.08485 5.15625 7.99742 5.15625 7.90625V5.84375H3.09375C3.00258 5.84375 2.91515 5.80753 2.85068 5.74307C2.78622 5.6786 2.75 5.59117 2.75 5.5C2.75 5.40883 2.78622 5.3214 2.85068 5.25693C2.91515 5.19247 3.00258 5.15625 3.09375 5.15625H5.15625V3.09375C5.15625 3.00258 5.19247 2.91515 5.25693 2.85068C5.3214 2.78622 5.40883 2.75 5.5 2.75Z" fill="#F9F8F8"/>
</g>
<defs>
<clipPath id="clip0_296_1059">
<rect width="11" height="11" fill="white"/>
</clipPath>
</defs>
</svg>
