<svg width="15" height="15" viewBox="0 0 15 15" fill="none" xmlns="http://www.w3.org/2000/svg">
<g clip-path="url(#clip0_326_1816)">
<path d="M12.75 1.375C12.9821 1.375 13.2046 1.46719 13.3687 1.63128C13.5328 1.79538 13.625 2.01794 13.625 2.25V12.75C13.625 12.9821 13.5328 13.2046 13.3687 13.3687C13.2046 13.5328 12.9821 13.625 12.75 13.625H2.25C2.01794 13.625 1.79538 13.5328 1.63128 13.3687C1.46719 13.2046 1.375 12.9821 1.375 12.75V2.25C1.375 2.01794 1.46719 1.79538 1.63128 1.63128C1.79538 1.46719 2.01794 1.375 2.25 1.375H12.75ZM2.25 0.5C1.78587 0.5 1.34075 0.684374 1.01256 1.01256C0.684374 1.34075 0.5 1.78587 0.5 2.25L0.5 12.75C0.5 13.2141 0.684374 13.6592 1.01256 13.9874C1.34075 14.3156 1.78587 14.5 2.25 14.5H12.75C13.2141 14.5 13.6592 14.3156 13.9874 13.9874C14.3156 13.6592 14.5 13.2141 14.5 12.75V2.25C14.5 1.78587 14.3156 1.34075 13.9874 1.01256C13.6592 0.684374 13.2141 0.5 12.75 0.5H2.25Z" fill="#F9F8F8"/>
<path d="M10.0988 4.84875C10.2213 4.72736 10.3866 4.65905 10.559 4.65857C10.7314 4.6581 10.8971 4.7255 11.0202 4.84621C11.1434 4.96692 11.214 5.13124 11.217 5.30364C11.2199 5.47604 11.1549 5.64267 11.036 5.7675L7.54295 10.1338C7.48292 10.1984 7.41046 10.2503 7.32992 10.2863C7.24937 10.3223 7.16239 10.3417 7.07417 10.3434C6.98595 10.345 6.89831 10.3288 6.81649 10.2958C6.73466 10.2628 6.66034 10.2136 6.59795 10.1513L4.28358 7.836C4.2191 7.77592 4.16739 7.70347 4.13152 7.62297C4.09565 7.54247 4.07636 7.45557 4.07481 7.36746C4.07325 7.27934 4.08946 7.19182 4.12247 7.1101C4.15548 7.02839 4.2046 6.95416 4.26692 6.89184C4.32923 6.82953 4.40346 6.7804 4.48518 6.74739C4.56689 6.71439 4.65442 6.69818 4.74253 6.69973C4.83065 6.70129 4.91755 6.72057 4.99805 6.75644C5.07855 6.79231 5.151 6.84403 5.21108 6.9085L7.04333 8.73988L10.0822 4.868C10.0876 4.86122 10.0926 4.85479 10.0988 4.84875Z" fill="#F9F8F8"/>
</g>
<defs>
<clipPath id="clip0_326_1816">
<rect width="14" height="14" fill="white" transform="translate(0.5 0.5)"/>
</clipPath>
</defs>
</svg>
