<svg width="41" height="40" viewBox="0 0 41 40" fill="none" xmlns="http://www.w3.org/2000/svg">
<circle cx="20.5" cy="20" r="20" fill="#A9DEDD"/>
<circle cx="20.5" cy="20" r="18" fill="#44ABA6"/>
<path d="M25.7411 16.4789C25.6397 17.8859 24.5959 18.9698 23.4577 18.9698C22.3194 18.9698 21.2739 17.8863 21.1743 16.4789C21.0705 15.0151 22.0866 13.9879 23.4577 13.9879C24.8287 13.9879 25.8448 15.0417 25.7411 16.4789Z" stroke="#F9F8F8" stroke-width="0.830322" stroke-linecap="round" stroke-linejoin="round"/>
<path d="M23.4579 21.1841C21.2032 21.1841 19.035 22.304 18.4919 24.485C18.4199 24.7735 18.6008 25.0589 18.8973 25.0589H28.0188C28.3153 25.0589 28.4952 24.7735 28.4242 24.485C27.8811 22.269 25.7129 21.1841 23.4579 21.1841Z" stroke="#F9F8F8" stroke-width="0.830322" stroke-miterlimit="10"/>
<path d="M18.7526 17.0995C18.6716 18.2232 17.8282 19.1082 16.919 19.1082C16.0098 19.1082 15.1649 18.2236 15.0853 17.0995C15.0026 15.9305 15.8236 15.095 16.919 15.095C18.0143 15.095 18.8353 15.9519 18.7526 17.0995Z" stroke="#F9F8F8" stroke-width="0.830322" stroke-linecap="round" stroke-linejoin="round"/>
<path d="M18.9606 21.2533C18.3361 20.9672 17.6483 20.8572 16.9194 20.8572C15.1204 20.8572 13.3871 21.7515 12.9529 23.4935C12.8958 23.7239 13.0404 23.9519 13.277 23.9519H17.1616" stroke="#F9F8F8" stroke-width="0.830322" stroke-miterlimit="10" stroke-linecap="round"/>
</svg>
