<svg width="12" height="13" viewBox="0 0 12 13" fill="none" xmlns="http://www.w3.org/2000/svg">
<g clip-path="url(#clip0_296_1033)">
<path d="M3.75 3.5C3.65054 3.5 3.55516 3.53951 3.48484 3.60984C3.41451 3.68016 3.375 3.77554 3.375 3.875C3.375 3.97446 3.41451 4.06984 3.48484 4.14016C3.55516 4.21049 3.65054 4.25 3.75 4.25H8.25C8.34946 4.25 8.44484 4.21049 8.51517 4.14016C8.58549 4.06984 8.625 3.97446 8.625 3.875C8.625 3.77554 8.58549 3.68016 8.51517 3.60984C8.44484 3.53951 8.34946 3.5 8.25 3.5H3.75ZM3.375 5.375C3.375 5.27554 3.41451 5.18016 3.48484 5.10984C3.55516 5.03951 3.65054 5 3.75 5H8.25C8.34946 5 8.44484 5.03951 8.51517 5.10984C8.58549 5.18016 8.625 5.27554 8.625 5.375C8.625 5.47446 8.58549 5.56984 8.51517 5.64016C8.44484 5.71049 8.34946 5.75 8.25 5.75H3.75C3.65054 5.75 3.55516 5.71049 3.48484 5.64016C3.41451 5.56984 3.375 5.47446 3.375 5.375ZM3.75 6.5C3.65054 6.5 3.55516 6.53951 3.48484 6.60983C3.41451 6.68016 3.375 6.77554 3.375 6.875C3.375 6.97446 3.41451 7.06984 3.48484 7.14017C3.55516 7.21049 3.65054 7.25 3.75 7.25H8.25C8.34946 7.25 8.44484 7.21049 8.51517 7.14017C8.58549 7.06984 8.625 6.97446 8.625 6.875C8.625 6.77554 8.58549 6.68016 8.51517 6.60983C8.44484 6.53951 8.34946 6.5 8.25 6.5H3.75ZM3.75 8C3.65054 8 3.55516 8.03951 3.48484 8.10983C3.41451 8.18016 3.375 8.27554 3.375 8.375C3.375 8.47446 3.41451 8.56984 3.48484 8.64017C3.55516 8.71049 3.65054 8.75 3.75 8.75H6C6.09946 8.75 6.19484 8.71049 6.26517 8.64017C6.33549 8.56984 6.375 8.47446 6.375 8.375C6.375 8.27554 6.33549 8.18016 6.26517 8.10983C6.19484 8.03951 6.09946 8 6 8H3.75Z" fill="#F9F8F8"/>
<path d="M1.5 2C1.5 1.60218 1.65804 1.22064 1.93934 0.93934C2.22064 0.658035 2.60218 0.5 3 0.5L9 0.5C9.39782 0.5 9.77936 0.658035 10.0607 0.93934C10.342 1.22064 10.5 1.60218 10.5 2V11C10.5 11.3978 10.342 11.7794 10.0607 12.0607C9.77936 12.342 9.39782 12.5 9 12.5H3C2.60218 12.5 2.22064 12.342 1.93934 12.0607C1.65804 11.7794 1.5 11.3978 1.5 11V2ZM9 1.25H3C2.80109 1.25 2.61032 1.32902 2.46967 1.46967C2.32902 1.61032 2.25 1.80109 2.25 2V11C2.25 11.1989 2.32902 11.3897 2.46967 11.5303C2.61032 11.671 2.80109 11.75 3 11.75H9C9.19891 11.75 9.38968 11.671 9.53033 11.5303C9.67098 11.3897 9.75 11.1989 9.75 11V2C9.75 1.80109 9.67098 1.61032 9.53033 1.46967C9.38968 1.32902 9.19891 1.25 9 1.25Z" fill="#F9F8F8"/>
</g>
<defs>
<clipPath id="clip0_296_1033">
<rect width="12" height="12" fill="white" transform="translate(0 0.5)"/>
</clipPath>
</defs>
</svg>
