<svg width="16" height="16" viewBox="0 0 16 16" fill="none" xmlns="http://www.w3.org/2000/svg">
<path d="M13 6.91406V13C13 13.3978 12.842 13.7794 12.5607 14.0607C12.2794 14.342 11.8978 14.5 11.5 14.5H4.5C4.10218 14.5 3.72064 14.342 3.43934 14.0607C3.15804 13.7794 3 13.3978 3 13V3C3 2.60218 3.15804 2.22064 3.43934 1.93934C3.72064 1.65804 4.10218 1.5 4.5 1.5H7.58594C7.85106 1.50004 8.10532 1.60536 8.29281 1.79281L12.7072 6.20719C12.8946 6.39468 13 6.64894 13 6.91406Z" stroke="#9090A4" stroke-linejoin="round"/>
<path d="M8 1.75V5.5C8 5.76522 8.10536 6.01957 8.29289 6.20711C8.48043 6.39464 8.73478 6.5 9 6.5H12.75M5.5 9H10.5M5.5 11.5H10.5" stroke="#9090A4" stroke-linecap="round" stroke-linejoin="round"/>
</svg>
