<svg width="436" height="147" viewBox="0 0 436 147" fill="none" xmlns="http://www.w3.org/2000/svg">
<ellipse cx="73.4478" cy="73.5" rx="73.4478" ry="73.5" fill="#F9F8F8"/>
<path fill-rule="evenodd" clip-rule="evenodd" d="M73.1034 43.5488L57.5546 28L43.8256 41.7291L72.3752 70.2787L72.4579 70.1959L72.7856 70.5235L101.749 41.5605L88.4201 28.232L73.1034 43.5488Z" fill="#44ABA6"/>
<path fill-rule="evenodd" clip-rule="evenodd" d="M102.451 73.1033L118 57.5545L104.271 43.8254L75.7213 72.375L75.804 72.4577L75.4764 72.7854L104.439 101.748L117.768 88.4199L102.451 73.1033Z" fill="#1D1D1D"/>
<path fill-rule="evenodd" clip-rule="evenodd" d="M72.486 102.467L88.0192 118L101.748 104.271L74.9212 77.4439L73.1561 75.6161L43.692 104.069L56.7858 117.628L72.486 102.467Z" fill="#1D1D1D"/>
<path fill-rule="evenodd" clip-rule="evenodd" d="M43.5487 72.4706L28 88.0194L41.7291 101.748L70.2787 73.1988L70.196 73.1162L70.5236 72.7885L41.5605 43.8255L28.2321 57.154L43.5487 72.4706Z" fill="#1D1D1D"/>
<path d="M171.926 81.5V49.2305H176.244C179.123 53.3432 181.765 57.4877 184.169 61.6637C186.605 65.8081 188.883 70.1424 191.003 74.6665L190.528 62.3281V49.2305H194.562V81.5H190.244C188.029 76.881 185.735 72.3886 183.363 68.0227C181.022 63.6252 178.459 59.3384 175.675 55.1624L175.96 68.3075V81.5H171.926ZM222.723 77.6561V81.5H204.69V49.2305H222.249V53.1218H208.819V63.2297H220.825V67.1211H208.819V77.6561H222.723ZM245.229 81.5L237.541 68.3549L230.138 81.5H225.82L235.406 64.8432L226.294 49.2305H230.993L238.111 61.5214L245.087 49.2305H249.358L240.246 65.033L249.88 81.5H245.229ZM255.235 49.2305H259.506V69.9209C259.506 72.5151 260.044 74.5399 261.12 75.9952C262.227 77.4505 263.935 78.1781 266.245 78.1781C268.586 78.1781 270.294 77.4505 271.37 75.9952C272.445 74.5399 272.983 72.5151 272.983 69.9209V49.2305H277.254V69.9209C277.254 73.6857 276.337 76.6438 274.502 78.7951C272.667 80.9147 269.915 81.9746 266.245 81.9746C262.543 81.9746 259.775 80.9147 257.94 78.7951C256.137 76.6438 255.235 73.6857 255.235 69.9209V49.2305ZM293.267 78.273C295.261 78.273 296.795 77.8459 297.871 76.9918C298.946 76.1059 299.484 74.8246 299.484 73.1479C299.484 71.7559 299.104 70.5853 298.345 69.6362C297.618 68.6871 296.415 67.9595 294.739 67.4533L290.895 66.3143C288.49 65.5867 286.719 64.4952 285.58 63.0399C284.441 61.553 283.871 59.7339 283.871 57.5826C283.871 55.9375 284.188 54.4505 284.82 53.1218C285.485 51.793 286.529 50.7332 287.952 49.9423C289.408 49.1514 291.306 48.7559 293.647 48.7559C295.071 48.7559 296.542 48.9299 298.06 49.2779C299.579 49.5943 301.113 50.1163 302.664 50.8439L301.335 54.4031C299.816 53.7387 298.44 53.2642 297.206 52.9794C296.004 52.6631 294.849 52.5049 293.742 52.5049C291.939 52.5049 290.531 52.8845 289.518 53.6438C288.538 54.3714 288.047 55.5895 288.047 57.2978C288.047 58.5317 288.38 59.5757 289.044 60.4299C289.708 61.2524 290.895 61.9326 292.603 62.4705L296.447 63.6094C301.256 65.033 303.66 68.1018 303.66 72.8157C303.66 75.5365 302.838 77.751 301.192 79.4594C299.547 81.1362 296.906 81.9746 293.267 81.9746C291.781 81.9746 290.199 81.8005 288.522 81.4525C286.877 81.0729 285.168 80.4876 283.397 79.6967L284.678 76.185C286.355 76.9443 287.858 77.4821 289.186 77.7985C290.547 78.1149 291.907 78.273 293.267 78.273Z" fill="white"/>
<path d="M306.264 53.1218V49.2305H329.184V53.1218H319.788V81.5H315.66V53.1218H306.264ZM334.157 49.2305H338.428V69.9209C338.428 72.5151 338.966 74.5399 340.042 75.9952C341.149 77.4505 342.857 78.1781 345.167 78.1781C347.508 78.1781 349.216 77.4505 350.292 75.9952C351.368 74.5399 351.905 72.5151 351.905 69.9209V49.2305H356.176V69.9209C356.176 73.6857 355.259 76.6438 353.424 78.7951C351.589 80.9147 348.837 81.9746 345.167 81.9746C341.465 81.9746 338.697 80.9147 336.862 78.7951C335.059 76.6438 334.157 73.6857 334.157 69.9209V49.2305ZM365.593 81.5V49.2305H375.606C379.308 49.2305 382.155 50.3536 384.148 52.5998C386.141 54.8144 387.138 57.8831 387.138 61.8061V68.8769C387.138 72.8315 386.141 75.9319 384.148 78.1781C382.155 80.3927 379.308 81.5 375.606 81.5H365.593ZM375.511 53.1218H369.722V77.6561H375.511C380.415 77.6561 382.867 74.7297 382.867 68.8769V61.8061C382.867 56.0166 380.415 53.1218 375.511 53.1218ZM399.937 81.5H395.809V49.2305H399.937V81.5ZM432.008 61.8061V68.8769C432.008 72.8948 430.996 76.0901 428.971 78.4629C426.978 80.804 424.099 81.9746 420.334 81.9746C416.569 81.9746 413.674 80.804 411.65 78.4629C409.657 76.0901 408.66 72.8948 408.66 68.8769V61.8061C408.66 57.8199 409.657 54.6562 411.65 52.3151C413.674 49.9423 416.569 48.7559 420.334 48.7559C424.099 48.7559 426.978 49.9423 428.971 52.3151C430.996 54.6562 432.008 57.8199 432.008 61.8061ZM427.737 61.8061C427.737 58.8639 427.104 56.6018 425.839 55.02C424.605 53.4065 422.77 52.5998 420.334 52.5998C417.93 52.5998 416.095 53.4065 414.829 55.02C413.564 56.6018 412.931 58.8639 412.931 61.8061V68.8769C412.931 71.8508 413.564 74.1444 414.829 75.7579C416.095 77.3714 417.93 78.1781 420.334 78.1781C422.77 78.1781 424.605 77.3714 425.839 75.7579C427.104 74.1444 427.737 71.8508 427.737 68.8769V61.8061Z" fill="#1D1D1D"/>
<path d="M170.723 107.5H169.292L173.431 96.2273H174.84L178.98 107.5H177.548L174.18 98.0107H174.092L170.723 107.5ZM171.252 103.097H177.02V104.308H171.252V103.097ZM180.735 107.5V96.2273H184.544C185.425 96.2273 186.148 96.3777 186.713 96.6786C187.278 96.9759 187.696 97.385 187.968 97.9061C188.24 98.4271 188.375 99.0198 188.375 99.6839C188.375 100.348 188.24 100.937 187.968 101.451C187.696 101.965 187.28 102.368 186.719 102.662C186.157 102.952 185.44 103.097 184.566 103.097H181.484V101.864H184.522C185.124 101.864 185.609 101.776 185.975 101.599C186.346 101.423 186.614 101.174 186.779 100.851C186.948 100.524 187.032 100.135 187.032 99.6839C187.032 99.2326 186.948 98.8381 186.779 98.5005C186.61 98.1629 186.341 97.9024 185.97 97.7189C185.599 97.5318 185.109 97.4382 184.5 97.4382H182.1V107.5H180.735ZM186.042 102.436L188.816 107.5H187.23L184.5 102.436H186.042ZM194.745 103.977H196.242L197.497 105.629L197.828 106.069L199.699 108.557H198.202L196.969 106.906L196.661 106.487L194.745 103.977ZM200.161 101.864C200.161 103.053 199.947 104.08 199.517 104.946C199.088 105.812 198.499 106.48 197.75 106.95C197.002 107.419 196.147 107.654 195.185 107.654C194.224 107.654 193.369 107.419 192.62 106.95C191.872 106.48 191.283 105.812 190.854 104.946C190.424 104.08 190.21 103.053 190.21 101.864C190.21 100.675 190.424 99.6473 190.854 98.7812C191.283 97.9152 191.872 97.2474 192.62 96.7777C193.369 96.308 194.224 96.0732 195.185 96.0732C196.147 96.0732 197.002 96.308 197.75 96.7777C198.499 97.2474 199.088 97.9152 199.517 98.7812C199.947 99.6473 200.161 100.675 200.161 101.864ZM198.84 101.864C198.84 100.888 198.677 100.064 198.35 99.3922C198.028 98.7207 197.589 98.2125 197.035 97.8675C196.484 97.5226 195.868 97.3501 195.185 97.3501C194.503 97.3501 193.885 97.5226 193.331 97.8675C192.78 98.2125 192.342 98.7207 192.015 99.3922C191.692 100.064 191.531 100.888 191.531 101.864C191.531 102.84 191.692 103.664 192.015 104.335C192.342 105.007 192.78 105.515 193.331 105.86C193.885 106.205 194.503 106.377 195.185 106.377C195.868 106.377 196.484 106.205 197.035 105.86C197.589 105.515 198.028 105.007 198.35 104.335C198.677 103.664 198.84 102.84 198.84 101.864ZM209.854 96.2273H211.219V103.691C211.219 104.462 211.038 105.15 210.674 105.755C210.315 106.357 209.807 106.832 209.15 107.181C208.493 107.526 207.722 107.698 206.838 107.698C205.954 107.698 205.183 107.526 204.526 107.181C203.869 106.832 203.359 106.357 202.996 105.755C202.636 105.15 202.457 104.462 202.457 103.691V96.2273H203.822V103.581C203.822 104.131 203.943 104.621 204.185 105.051C204.427 105.476 204.772 105.812 205.22 106.058C205.671 106.3 206.211 106.421 206.838 106.421C207.465 106.421 208.005 106.3 208.456 106.058C208.908 105.812 209.253 105.476 209.491 105.051C209.733 104.621 209.854 104.131 209.854 103.581V96.2273ZM215.31 96.2273V107.5H213.945V96.2273H215.31ZM217.431 97.4382V96.2273H225.885V97.4382H222.341V107.5H220.976V97.4382H217.431ZM227.992 107.5V96.2273H234.796V97.4382H229.357V101.247H234.443V102.458H229.357V106.289H234.884V107.5H227.992ZM246.327 99.75H244.962C244.881 99.3574 244.74 99.0124 244.538 98.7152C244.34 98.418 244.098 98.1684 243.812 97.9666C243.529 97.7611 243.215 97.607 242.87 97.5043C242.525 97.4015 242.166 97.3501 241.791 97.3501C241.109 97.3501 240.491 97.5226 239.937 97.8675C239.386 98.2125 238.948 98.7207 238.621 99.3922C238.298 100.064 238.137 100.888 238.137 101.864C238.137 102.84 238.298 103.664 238.621 104.335C238.948 105.007 239.386 105.515 239.937 105.86C240.491 106.205 241.109 106.377 241.791 106.377C242.166 106.377 242.525 106.326 242.87 106.223C243.215 106.12 243.529 105.968 243.812 105.766C244.098 105.561 244.34 105.309 244.538 105.012C244.74 104.711 244.881 104.366 244.962 103.977H246.327C246.224 104.553 246.037 105.069 245.766 105.524C245.494 105.979 245.156 106.366 244.753 106.685C244.349 107.001 243.896 107.241 243.393 107.406C242.894 107.572 242.36 107.654 241.791 107.654C240.83 107.654 239.975 107.419 239.226 106.95C238.478 106.48 237.889 105.812 237.46 104.946C237.03 104.08 236.816 103.053 236.816 101.864C236.816 100.675 237.03 99.6473 237.46 98.7812C237.889 97.9152 238.478 97.2474 239.226 96.7777C239.975 96.308 240.83 96.0732 241.791 96.0732C242.36 96.0732 242.894 96.1557 243.393 96.3208C243.896 96.486 244.349 96.7282 244.753 97.0474C245.156 97.363 245.494 97.7483 245.766 98.2033C246.037 98.6547 246.224 99.1702 246.327 99.75ZM247.916 97.4382V96.2273H256.371V97.4382H252.826V107.5H251.461V97.4382H247.916ZM265.875 96.2273H267.24V103.691C267.24 104.462 267.059 105.15 266.695 105.755C266.336 106.357 265.828 106.832 265.171 107.181C264.514 107.526 263.743 107.698 262.859 107.698C261.975 107.698 261.204 107.526 260.547 107.181C259.89 106.832 259.38 106.357 259.017 105.755C258.657 105.15 258.478 104.462 258.478 103.691V96.2273H259.843V103.581C259.843 104.131 259.964 104.621 260.206 105.051C260.448 105.476 260.793 105.812 261.241 106.058C261.692 106.3 262.232 106.421 262.859 106.421C263.486 106.421 264.026 106.3 264.477 106.058C264.929 105.812 265.274 105.476 265.512 105.051C265.754 104.621 265.875 104.131 265.875 103.581V96.2273ZM269.966 107.5V96.2273H273.775C274.656 96.2273 275.379 96.3777 275.944 96.6786C276.509 96.9759 276.927 97.385 277.199 97.9061C277.471 98.4271 277.606 99.0198 277.606 99.6839C277.606 100.348 277.471 100.937 277.199 101.451C276.927 101.965 276.511 102.368 275.95 102.662C275.388 102.952 274.671 103.097 273.797 103.097H270.715V101.864H273.753C274.355 101.864 274.839 101.776 275.206 101.599C275.577 101.423 275.845 101.174 276.01 100.851C276.179 100.524 276.263 100.135 276.263 99.6839C276.263 99.2326 276.179 98.8381 276.01 98.5005C275.841 98.1629 275.572 97.9024 275.201 97.7189C274.83 97.5318 274.34 97.4382 273.731 97.4382H271.331V107.5H269.966ZM275.272 102.436L278.047 107.5H276.461L273.731 102.436H275.272ZM280.343 107.5H278.912L283.051 96.2273H284.46L288.6 107.5H287.169L283.8 98.0107H283.712L280.343 107.5ZM280.872 103.097H286.64V104.308H280.872V103.097ZM297.731 107.654C296.99 107.654 296.352 107.518 295.816 107.247C295.28 106.975 294.867 106.603 294.577 106.129C294.287 105.656 294.142 105.115 294.142 104.506C294.142 104.036 294.242 103.619 294.44 103.256C294.642 102.889 294.919 102.55 295.271 102.238C295.627 101.922 296.036 101.607 296.498 101.291L298.128 100.08C298.447 99.8711 298.702 99.6473 298.893 99.4087C299.087 99.1702 299.184 98.8583 299.184 98.473C299.184 98.1868 299.058 97.9097 298.805 97.6419C298.555 97.374 298.227 97.2401 297.819 97.2401C297.533 97.2401 297.28 97.3134 297.06 97.4602C296.843 97.6033 296.673 97.7868 296.548 98.0107C296.427 98.2308 296.366 98.4583 296.366 98.6932C296.366 98.9574 296.438 99.2253 296.581 99.4968C296.728 99.7647 296.913 100.04 297.137 100.322C297.364 100.601 297.599 100.888 297.841 101.181L303.015 107.5H301.452L297.181 102.348C296.785 101.871 296.425 101.438 296.102 101.049C295.779 100.66 295.522 100.277 295.331 99.8986C295.141 99.5207 295.045 99.1115 295.045 98.6712C295.045 98.1648 295.157 97.7208 295.381 97.3391C295.608 96.9538 295.926 96.6548 296.333 96.4419C296.744 96.2254 297.225 96.1172 297.775 96.1172C298.34 96.1172 298.827 96.2273 299.234 96.4474C299.641 96.6639 299.955 96.952 300.175 97.3116C300.395 97.6676 300.505 98.0547 300.505 98.473C300.505 99.0124 300.371 99.4803 300.104 99.8766C299.836 100.273 299.471 100.642 299.008 100.983L296.762 102.656C296.256 103.031 295.913 103.394 295.733 103.746C295.553 104.098 295.463 104.352 295.463 104.506C295.463 104.858 295.555 105.186 295.739 105.491C295.922 105.796 296.181 106.041 296.515 106.229C296.849 106.416 297.24 106.509 297.687 106.509C298.113 106.509 298.528 106.419 298.931 106.24C299.335 106.056 299.7 105.792 300.027 105.447C300.357 105.102 300.617 104.687 300.808 104.203C301.003 103.719 301.1 103.174 301.1 102.568H302.355C302.355 103.317 302.269 103.928 302.096 104.401C301.924 104.874 301.729 105.245 301.513 105.513C301.296 105.781 301.122 105.981 300.99 106.113C300.946 106.168 300.905 106.223 300.869 106.278C300.832 106.333 300.792 106.388 300.748 106.443C300.384 106.85 299.926 107.155 299.372 107.357C298.817 107.555 298.271 107.654 297.731 107.654ZM318.06 99.75H316.695C316.614 99.3574 316.473 99.0124 316.271 98.7152C316.073 98.418 315.831 98.1684 315.544 97.9666C315.262 97.7611 314.948 97.607 314.603 97.5043C314.258 97.4015 313.899 97.3501 313.524 97.3501C312.842 97.3501 312.224 97.5226 311.669 97.8675C311.119 98.2125 310.68 98.7207 310.354 99.3922C310.031 100.064 309.87 100.888 309.87 101.864C309.87 102.84 310.031 103.664 310.354 104.335C310.68 105.007 311.119 105.515 311.669 105.86C312.224 106.205 312.842 106.377 313.524 106.377C313.899 106.377 314.258 106.326 314.603 106.223C314.948 106.12 315.262 105.968 315.544 105.766C315.831 105.561 316.073 105.309 316.271 105.012C316.473 104.711 316.614 104.366 316.695 103.977H318.06C317.957 104.553 317.77 105.069 317.498 105.524C317.227 105.979 316.889 106.366 316.486 106.685C316.082 107.001 315.629 107.241 315.126 107.406C314.627 107.572 314.093 107.654 313.524 107.654C312.563 107.654 311.708 107.419 310.959 106.95C310.211 106.48 309.622 105.812 309.192 104.946C308.763 104.08 308.548 103.053 308.548 101.864C308.548 100.675 308.763 99.6473 309.192 98.7812C309.622 97.9152 310.211 97.2474 310.959 96.7777C311.708 96.308 312.563 96.0732 313.524 96.0732C314.093 96.0732 314.627 96.1557 315.126 96.3208C315.629 96.486 316.082 96.7282 316.486 97.0474C316.889 97.363 317.227 97.7483 317.498 98.2033C317.77 98.6547 317.957 99.1702 318.06 99.75ZM329.777 101.864C329.777 103.053 329.562 104.08 329.133 104.946C328.704 105.812 328.115 106.48 327.366 106.95C326.618 107.419 325.763 107.654 324.801 107.654C323.84 107.654 322.985 107.419 322.236 106.95C321.488 106.48 320.899 105.812 320.469 104.946C320.04 104.08 319.825 103.053 319.825 101.864C319.825 100.675 320.04 99.6473 320.469 98.7812C320.899 97.9152 321.488 97.2474 322.236 96.7777C322.985 96.308 323.84 96.0732 324.801 96.0732C325.763 96.0732 326.618 96.308 327.366 96.7777C328.115 97.2474 328.704 97.9152 329.133 98.7812C329.562 99.6473 329.777 100.675 329.777 101.864ZM328.456 101.864C328.456 100.888 328.293 100.064 327.966 99.3922C327.643 98.7207 327.205 98.2125 326.651 97.8675C326.1 97.5226 325.484 97.3501 324.801 97.3501C324.119 97.3501 323.5 97.5226 322.946 97.8675C322.396 98.2125 321.957 98.7207 321.631 99.3922C321.308 100.064 321.146 100.888 321.146 101.864C321.146 102.84 321.308 103.664 321.631 104.335C321.957 105.007 322.396 105.515 322.946 105.86C323.5 106.205 324.119 106.377 324.801 106.377C325.484 106.377 326.1 106.205 326.651 105.86C327.205 105.515 327.643 105.007 327.966 104.335C328.293 103.664 328.456 102.84 328.456 101.864ZM341.011 96.2273V107.5H339.69L333.547 98.6491H333.437V107.5H332.072V96.2273H333.393L339.558 105.1H339.668V96.2273H341.011ZM349.908 99.0455C349.841 98.4877 349.574 98.0547 349.104 97.7464C348.634 97.4382 348.058 97.2841 347.376 97.2841C346.877 97.2841 346.44 97.3648 346.066 97.5263C345.695 97.6877 345.405 97.9097 345.196 98.1923C344.99 98.4748 344.888 98.7959 344.888 99.1555C344.888 99.4564 344.959 99.7151 345.102 99.9316C345.249 100.144 345.436 100.322 345.664 100.466C345.891 100.605 346.13 100.721 346.379 100.812C346.629 100.9 346.858 100.972 347.067 101.027L348.212 101.335C348.506 101.412 348.832 101.519 349.192 101.654C349.555 101.79 349.902 101.976 350.232 102.21C350.566 102.442 350.841 102.739 351.058 103.102C351.274 103.465 351.383 103.911 351.383 104.44C351.383 105.049 351.223 105.599 350.904 106.091C350.588 106.583 350.126 106.973 349.517 107.263C348.911 107.553 348.176 107.698 347.31 107.698C346.502 107.698 345.803 107.568 345.212 107.307C344.625 107.047 344.163 106.684 343.825 106.218C343.491 105.751 343.302 105.21 343.258 104.594H344.667C344.704 105.019 344.847 105.372 345.097 105.651C345.35 105.926 345.669 106.131 346.055 106.267C346.444 106.399 346.862 106.465 347.31 106.465C347.831 106.465 348.298 106.381 348.713 106.212C349.128 106.04 349.456 105.801 349.698 105.496C349.941 105.188 350.062 104.829 350.062 104.418C350.062 104.043 349.957 103.739 349.748 103.504C349.539 103.269 349.264 103.078 348.922 102.931C348.581 102.785 348.212 102.656 347.816 102.546L346.429 102.15C345.548 101.897 344.851 101.535 344.337 101.066C343.823 100.596 343.567 99.9812 343.567 99.2216C343.567 98.5904 343.737 98.04 344.079 97.5703C344.423 97.0969 344.886 96.73 345.466 96.4695C346.049 96.2053 346.7 96.0732 347.42 96.0732C348.146 96.0732 348.792 96.2034 349.357 96.464C349.922 96.7208 350.37 97.0731 350.7 97.5208C351.034 97.9685 351.21 98.4767 351.229 99.0455H349.908ZM353.011 97.4382V96.2273H361.465V97.4382H357.92V107.5H356.555V97.4382H353.011ZM363.572 107.5V96.2273H367.381C368.261 96.2273 368.984 96.3777 369.549 96.6786C370.115 96.9759 370.533 97.385 370.804 97.9061C371.076 98.4271 371.212 99.0198 371.212 99.6839C371.212 100.348 371.076 100.937 370.804 101.451C370.533 101.965 370.116 102.368 369.555 102.662C368.994 102.952 368.276 103.097 367.403 103.097H364.32V101.864H367.359C367.961 101.864 368.445 101.776 368.812 101.599C369.183 101.423 369.45 101.174 369.616 100.851C369.784 100.524 369.869 100.135 369.869 99.6839C369.869 99.2326 369.784 98.8381 369.616 98.5005C369.447 98.1629 369.177 97.9024 368.806 97.7189C368.436 97.5318 367.946 97.4382 367.337 97.4382H364.937V107.5H363.572ZM368.878 102.436L371.652 107.5H370.067L367.337 102.436H368.878ZM380.884 96.2273H382.249V103.691C382.249 104.462 382.068 105.15 381.704 105.755C381.345 106.357 380.836 106.832 380.18 107.181C379.523 107.526 378.752 107.698 377.868 107.698C376.983 107.698 376.213 107.526 375.556 107.181C374.899 106.832 374.389 106.357 374.026 105.755C373.666 105.15 373.486 104.462 373.486 103.691V96.2273H374.851V103.581C374.851 104.131 374.973 104.621 375.215 105.051C375.457 105.476 375.802 105.812 376.25 106.058C376.701 106.3 377.24 106.421 377.868 106.421C378.495 106.421 379.035 106.3 379.486 106.058C379.937 105.812 380.282 105.476 380.521 105.051C380.763 104.621 380.884 104.131 380.884 103.581V96.2273ZM394.046 99.75H392.681C392.6 99.3574 392.459 99.0124 392.257 98.7152C392.059 98.418 391.817 98.1684 391.531 97.9666C391.248 97.7611 390.934 97.607 390.59 97.5043C390.245 97.4015 389.885 97.3501 389.511 97.3501C388.828 97.3501 388.21 97.5226 387.656 97.8675C387.105 98.2125 386.667 98.7207 386.34 99.3922C386.017 100.064 385.856 100.888 385.856 101.864C385.856 102.84 386.017 103.664 386.34 104.335C386.667 105.007 387.105 105.515 387.656 105.86C388.21 106.205 388.828 106.377 389.511 106.377C389.885 106.377 390.245 106.326 390.59 106.223C390.934 106.12 391.248 105.968 391.531 105.766C391.817 105.561 392.059 105.309 392.257 105.012C392.459 104.711 392.6 104.366 392.681 103.977H394.046C393.943 104.553 393.756 105.069 393.485 105.524C393.213 105.979 392.876 106.366 392.472 106.685C392.068 107.001 391.615 107.241 391.112 107.406C390.613 107.572 390.079 107.654 389.511 107.654C388.549 107.654 387.694 107.419 386.946 106.95C386.197 106.48 385.608 105.812 385.179 104.946C384.749 104.08 384.535 103.053 384.535 101.864C384.535 100.675 384.749 99.6473 385.179 98.7812C385.608 97.9152 386.197 97.2474 386.946 96.7777C387.694 96.308 388.549 96.0732 389.511 96.0732C390.079 96.0732 390.613 96.1557 391.112 96.3208C391.615 96.486 392.068 96.7282 392.472 97.0474C392.876 97.363 393.213 97.7483 393.485 98.2033C393.756 98.6547 393.943 99.1702 394.046 99.75ZM405.323 99.75H403.958C403.877 99.3574 403.736 99.0124 403.534 98.7152C403.336 98.418 403.094 98.1684 402.808 97.9666C402.525 97.7611 402.211 97.607 401.866 97.5043C401.521 97.4015 401.162 97.3501 400.788 97.3501C400.105 97.3501 399.487 97.5226 398.933 97.8675C398.382 98.2125 397.944 98.7207 397.617 99.3922C397.294 100.064 397.133 100.888 397.133 101.864C397.133 102.84 397.294 103.664 397.617 104.335C397.944 105.007 398.382 105.515 398.933 105.86C399.487 106.205 400.105 106.377 400.788 106.377C401.162 106.377 401.521 106.326 401.866 106.223C402.211 106.12 402.525 105.968 402.808 105.766C403.094 105.561 403.336 105.309 403.534 105.012C403.736 104.711 403.877 104.366 403.958 103.977H405.323C405.22 104.553 405.033 105.069 404.762 105.524C404.49 105.979 404.152 106.366 403.749 106.685C403.345 107.001 402.892 107.241 402.389 107.406C401.89 107.572 401.356 107.654 400.788 107.654C399.826 107.654 398.971 107.419 398.223 106.95C397.474 106.48 396.885 105.812 396.456 104.946C396.026 104.08 395.812 103.053 395.812 101.864C395.812 100.675 396.026 99.6473 396.456 98.7812C396.885 97.9152 397.474 97.2474 398.223 96.7777C398.971 96.308 399.826 96.0732 400.788 96.0732C401.356 96.0732 401.89 96.1557 402.389 96.3208C402.892 96.486 403.345 96.7282 403.749 97.0474C404.152 97.363 404.49 97.7483 404.762 98.2033C405.033 98.6547 405.22 99.1702 405.323 99.75ZM408.894 96.2273V107.5H407.529V96.2273H408.894ZM421.142 101.864C421.142 103.053 420.928 104.08 420.498 104.946C420.069 105.812 419.48 106.48 418.731 106.95C417.983 107.419 417.128 107.654 416.166 107.654C415.205 107.654 414.35 107.419 413.601 106.95C412.853 106.48 412.264 105.812 411.835 104.946C411.405 104.08 411.191 103.053 411.191 101.864C411.191 100.675 411.405 99.6473 411.835 98.7812C412.264 97.9152 412.853 97.2474 413.601 96.7777C414.35 96.308 415.205 96.0732 416.166 96.0732C417.128 96.0732 417.983 96.308 418.731 96.7777C419.48 97.2474 420.069 97.9152 420.498 98.7812C420.928 99.6473 421.142 100.675 421.142 101.864ZM419.821 101.864C419.821 100.888 419.658 100.064 419.331 99.3922C419.008 98.7207 418.57 98.2125 418.016 97.8675C417.465 97.5226 416.849 97.3501 416.166 97.3501C415.484 97.3501 414.866 97.5226 414.312 97.8675C413.761 98.2125 413.323 98.7207 412.996 99.3922C412.673 100.064 412.512 100.888 412.512 101.864C412.512 102.84 412.673 103.664 412.996 104.335C413.323 105.007 413.761 105.515 414.312 105.86C414.866 106.205 415.484 106.377 416.166 106.377C416.849 106.377 417.465 106.205 418.016 105.86C418.57 105.515 419.008 105.007 419.331 104.335C419.658 103.664 419.821 102.84 419.821 101.864ZM415.572 95.0824L416.915 92.5284H418.434L416.717 95.0824H415.572ZM432.376 96.2273V107.5H431.055L424.913 98.6491H424.803V107.5H423.438V96.2273H424.759L430.923 105.1H431.033V96.2273H432.376Z" fill="#E1E1E1"/>
</svg>
