<svg width="16" height="16" viewBox="0 0 16 16" fill="none" xmlns="http://www.w3.org/2000/svg">
<path d="M8.5 5.034V6.134L9.453 5.584L9.953 6.451L9 7L9.953 7.55L9.453 8.416L8.5 7.866V8.966H7.5V7.866L6.547 8.416L6.047 7.55L7 7L6.047 6.45L6.547 5.584L7.5 6.134V5.034H8.5ZM13.25 9C13.1837 9 13.1201 9.02634 13.0732 9.07322C13.0263 9.12011 13 9.1837 13 9.25V9.75C13 9.888 13.112 10 13.25 10H13.75C13.8163 10 13.8799 9.97366 13.9268 9.92678C13.9737 9.87989 14 9.8163 14 9.75V9.25C14 9.1837 13.9737 9.12011 13.9268 9.07322C13.8799 9.02634 13.8163 9 13.75 9H13.25ZM13 11.25C13 11.1837 13.0263 11.1201 13.0732 11.0732C13.1201 11.0263 13.1837 11 13.25 11H13.75C13.8163 11 13.8799 11.0263 13.9268 11.0732C13.9737 11.1201 14 11.1837 14 11.25V11.75C14 11.8163 13.9737 11.8799 13.9268 11.9268C13.8799 11.9737 13.8163 12 13.75 12H13.25C13.1837 12 13.1201 11.9737 13.0732 11.9268C13.0263 11.8799 13 11.8163 13 11.75V11.25ZM13.25 13C13.1837 13 13.1201 13.0263 13.0732 13.0732C13.0263 13.1201 13 13.1837 13 13.25V13.75C13 13.888 13.112 14 13.25 14H13.75C13.8163 14 13.8799 13.9737 13.9268 13.9268C13.9737 13.8799 14 13.8163 14 13.75V13.25C14 13.1837 13.9737 13.1201 13.9268 13.0732C13.8799 13.0263 13.8163 13 13.75 13H13.25ZM2.25 9C2.1837 9 2.12011 9.02634 2.07322 9.07322C2.02634 9.12011 2 9.1837 2 9.25V9.75C2 9.888 2.112 10 2.25 10H2.75C2.8163 10 2.87989 9.97366 2.92678 9.92678C2.97366 9.87989 3 9.8163 3 9.75V9.25C3 9.1837 2.97366 9.12011 2.92678 9.07322C2.87989 9.02634 2.8163 9 2.75 9H2.25ZM2.25 11C2.1837 11 2.12011 11.0263 2.07322 11.0732C2.02634 11.1201 2 11.1837 2 11.25V11.75C2 11.888 2.112 12 2.25 12H2.75C2.8163 12 2.87989 11.9737 2.92678 11.9268C2.97366 11.8799 3 11.8163 3 11.75V11.25C3 11.1837 2.97366 11.1201 2.92678 11.0732C2.87989 11.0263 2.8163 11 2.75 11H2.25ZM2 13.25C2 13.1837 2.02634 13.1201 2.07322 13.0732C2.12011 13.0263 2.1837 13 2.25 13H2.75C2.8163 13 2.87989 13.0263 2.92678 13.0732C2.97366 13.1201 3 13.1837 3 13.25V13.75C3 13.8163 2.97366 13.8799 2.92678 13.9268C2.87989 13.9737 2.8163 14 2.75 14H2.25C2.1837 14 2.12011 13.9737 2.07322 13.9268C2.02634 13.8799 2 13.8163 2 13.75V13.25Z" fill="#9090A4"/>
<path d="M5 1C5 0.734784 5.10536 0.48043 5.29289 0.292893C5.48043 0.105357 5.73478 0 6 0H10C10.2652 0 10.5196 0.105357 10.7071 0.292893C10.8946 0.48043 11 0.734784 11 1V2C11.2652 2 11.5196 2.10536 11.7071 2.29289C11.8946 2.48043 12 2.73478 12 3V7H15C15.2652 7 15.5196 7.10536 15.7071 7.29289C15.8946 7.48043 16 7.73478 16 8V15C16 15.2652 15.8946 15.5196 15.7071 15.7071C15.5196 15.8946 15.2652 16 15 16H1C0.734784 16 0.48043 15.8946 0.292893 15.7071C0.105357 15.5196 0 15.2652 0 15V8C0 7.73478 0.105357 7.48043 0.292893 7.29289C0.48043 7.10536 0.734784 7 1 7H4V3C4 2.73478 4.10536 2.48043 4.29289 2.29289C4.48043 2.10536 4.73478 2 5 2V1ZM7 15H9V12H7V15ZM10 15H11V3H5V15H6V12C6 11.7348 6.10536 11.4804 6.29289 11.2929C6.48043 11.1054 6.73478 11 7 11H9C9.26522 11 9.51957 11.1054 9.70711 11.2929C9.89464 11.4804 10 11.7348 10 12V15ZM10 1H6V2H10V1ZM12 8V15H15V8H12ZM4 15V8H1V15H4Z" fill="#9090A4"/>
</svg>
