<svg width="15" height="16" viewBox="0 0 15 16" fill="none" xmlns="http://www.w3.org/2000/svg">
<path d="M5.97656 1.90625H1.99219C1.66858 1.90625 1.40625 2.16858 1.40625 2.49219V6.47656C1.40625 6.80017 1.66858 7.0625 1.99219 7.0625H5.97656C6.30017 7.0625 6.5625 6.80017 6.5625 6.47656V2.49219C6.5625 2.16858 6.30017 1.90625 5.97656 1.90625Z" stroke="#9090A4" stroke-width="0.9375" stroke-linecap="round" stroke-linejoin="round"/>
<path d="M13.0078 1.90625H9.02344C8.69983 1.90625 8.4375 2.16858 8.4375 2.49219V6.47656C8.4375 6.80017 8.69983 7.0625 9.02344 7.0625H13.0078C13.3314 7.0625 13.5938 6.80017 13.5938 6.47656V2.49219C13.5938 2.16858 13.3314 1.90625 13.0078 1.90625Z" stroke="#9090A4" stroke-width="0.9375" stroke-linecap="round" stroke-linejoin="round"/>
<path d="M5.97656 8.9375H1.99219C1.66858 8.9375 1.40625 9.19983 1.40625 9.52344V13.5078C1.40625 13.8314 1.66858 14.0938 1.99219 14.0938H5.97656C6.30017 14.0938 6.5625 13.8314 6.5625 13.5078V9.52344C6.5625 9.19983 6.30017 8.9375 5.97656 8.9375Z" stroke="#9090A4" stroke-width="0.9375" stroke-linecap="round" stroke-linejoin="round"/>
<path d="M13.0078 8.9375H9.02344C8.69983 8.9375 8.4375 9.19983 8.4375 9.52344V13.5078C8.4375 13.8314 8.69983 14.0938 9.02344 14.0938H13.0078C13.3314 14.0938 13.5938 13.8314 13.5938 13.5078V9.52344C13.5938 9.19983 13.3314 8.9375 13.0078 8.9375Z" stroke="#9090A4" stroke-width="0.9375" stroke-linecap="round" stroke-linejoin="round"/>
</svg>
