<svg width="512" height="512" viewBox="0 0 512 512" fill="none" xmlns="http://www.w3.org/2000/svg">
<path d="M80 212V448C80 452.243 81.6857 456.313 84.6863 459.314C87.6869 462.314 91.7565 464 96 464H192V328C192 321.635 194.529 315.53 199.029 311.029C203.53 306.529 209.635 304 216 304H296C302.365 304 308.47 306.529 312.971 311.029C317.471 315.53 320 321.635 320 328V464H416C420.243 464 424.313 462.314 427.314 459.314C430.314 456.313 432 452.243 432 448V212" stroke="#F9F8F8" stroke-width="32" stroke-linecap="round" stroke-linejoin="round"/>
<path d="M480 256L266.89 52C261.89 46.72 250.2 46.66 245.11 52L32 256M400 179V64H352V133" stroke="#F9F8F8" stroke-width="32" stroke-linecap="round" stroke-linejoin="round"/>
</svg>
