<svg width="11" height="8" viewBox="0 0 11 8" fill="none" xmlns="http://www.w3.org/2000/svg">
<path fill-rule="evenodd" clip-rule="evenodd" d="M0.423075 0.19228C0.189416 0.19228 0 0.381698 0 0.615357V1.46151C0 1.69517 0.189416 1.88459 0.423075 1.88459H1.26923C1.50289 1.88459 1.69231 1.69517 1.69231 1.46151V0.615357C1.69231 0.381698 1.50289 0.19228 1.26923 0.19228H0.423075ZM0.423075 3.15382C0.189416 3.15382 0 3.34324 0 3.5769V4.42305C0 4.65671 0.189416 4.84613 0.423075 4.84613H1.26923C1.50289 4.84613 1.69231 4.65671 1.69231 4.42305V3.5769C1.69231 3.34324 1.50289 3.15382 1.26923 3.15382H0.423075ZM0.423075 6.11536C0.189416 6.11536 0 6.30478 0 6.53844V7.38459C0 7.61825 0.189416 7.80767 0.423075 7.80767H1.26923C1.50289 7.80767 1.69231 7.61825 1.69231 7.38459V6.53844C1.69231 6.30478 1.50289 6.11536 1.26923 6.11536H0.423075ZM2.53846 1.67305H11V0.403818H2.53846V1.67305ZM2.53846 4.63459H11V3.36536H2.53846V4.63459ZM2.53846 7.59613H11V6.3269H2.53846V7.59613Z" fill="#FEFEFF"/>
</svg>
