<svg width="109" height="109" viewBox="0 0 109 109" fill="none" xmlns="http://www.w3.org/2000/svg">
<path fill-rule="evenodd" clip-rule="evenodd" d="M54.6249 18.8312L35.7937 3.05176e-05L19.1663 16.6274L53.743 51.2042L53.8432 51.104L54.2399 51.5007L89.3174 16.4233L73.1751 0.281028L54.6249 18.8312Z" fill="#44ABA6"/>
<path fill-rule="evenodd" clip-rule="evenodd" d="M90.1688 54.625L109 35.7938L92.3726 19.1664L57.7959 53.7431L57.8961 53.8434L57.4994 54.2401L92.5768 89.3176L108.719 73.1753L90.1688 54.625Z" fill="#FEFEFF"/>
<path fill-rule="evenodd" clip-rule="evenodd" d="M53.8778 90.1877L72.6902 109L89.3176 92.3726L56.8288 59.8838L54.6894 57.6685L19.0051 92.1284L34.8632 108.55L53.8778 90.1877Z" fill="#FEFEFF"/>
<path fill-rule="evenodd" clip-rule="evenodd" d="M18.8312 53.8587L0 72.69L16.6274 89.3174L51.2041 54.7407L51.1039 54.6404L51.5006 54.2436L16.4232 19.1662L0.280921 35.3084L18.8312 53.8587Z" fill="#FEFEFF"/>
</svg>
