<svg width="127" height="42" viewBox="0 0 127 42" fill="none" xmlns="http://www.w3.org/2000/svg">
<path fill-rule="evenodd" clip-rule="evenodd" d="M21.0482 7.25607L13.7921 0L7.38523 6.40689L20.7084 19.73L20.747 19.6914L20.8999 19.8443L34.4159 6.32823L28.196 0.108274L21.0482 7.25607Z" fill="#44ABA6"/>
<path fill-rule="evenodd" clip-rule="evenodd" d="M34.7439 21.0482L42 13.7921L35.5931 7.38521L22.27 20.7084L22.3086 20.747L22.1557 20.8998L35.6718 34.4159L41.8917 28.196L34.7439 21.0482Z" fill="#FEFEFF"/>
<path fill-rule="evenodd" clip-rule="evenodd" d="M20.7602 34.7512L28.009 42L34.4159 35.5931L21.8971 23.0743L21.0729 22.2208L7.32302 35.499L13.4335 41.8265L20.7602 34.7512Z" fill="#FEFEFF"/>
<path fill-rule="evenodd" clip-rule="evenodd" d="M7.25606 20.753L0 28.0091L6.40689 34.416L19.73 21.0928L19.6915 21.0542L19.8443 20.9013L6.32823 7.38525L0.108274 13.6052L7.25606 20.753Z" fill="#FEFEFF"/>
<path d="M59.9019 37.5H59.0405L55.5381 32.1035H55.5029C55.5117 32.2471 55.522 32.4111 55.5337 32.5957C55.5454 32.7773 55.5542 32.9722 55.5601 33.1802C55.5688 33.3853 55.5732 33.5947 55.5732 33.8086V37.5H54.8789V31.0752H55.7358L59.2251 36.4541H59.2559C59.25 36.3516 59.2427 36.2065 59.2339 36.019C59.2251 35.8286 59.2163 35.625 59.2075 35.4082C59.2017 35.1885 59.1987 34.9849 59.1987 34.7974V31.0752H59.9019V37.5ZM66.9424 37.5H63.3653V31.0752H66.9424V31.7344H64.1123V33.813H66.7798V34.4634H64.1123V36.8408H66.9424V37.5ZM75.2003 37.5H73.6446L72.1505 35.0698L70.6563 37.5H69.1973L71.3287 34.1865L69.3336 31.0752H70.8365L72.2208 33.3867L73.5787 31.0752H75.0465L73.0294 34.2612L75.2003 37.5ZM82.6495 31.0752V35.2324C82.6495 35.6865 82.5572 36.0908 82.3727 36.4453C82.191 36.7998 81.9156 37.0796 81.5465 37.2847C81.1774 37.4868 80.7145 37.5879 80.1578 37.5879C79.3639 37.5879 78.7589 37.3726 78.3429 36.9419C77.9298 36.5112 77.7233 35.9355 77.7233 35.2148V31.0752H78.4747V35.2368C78.4747 35.7817 78.6183 36.2021 78.9054 36.498C79.1954 36.7939 79.6276 36.9419 80.2018 36.9419C80.5944 36.9419 80.9152 36.8716 81.1642 36.731C81.4161 36.5874 81.6022 36.3882 81.7223 36.1333C81.8453 35.8755 81.9069 35.5781 81.9069 35.2412V31.0752H82.6495ZM89.6901 35.7905C89.6901 36.1714 89.5949 36.4966 89.4045 36.7661C89.217 37.0327 88.9533 37.2363 88.6134 37.377C88.2736 37.5176 87.8737 37.5879 87.4137 37.5879C87.1706 37.5879 86.9406 37.5762 86.7238 37.5527C86.507 37.5293 86.3078 37.4956 86.1261 37.4517C85.9445 37.4077 85.7848 37.3535 85.6471 37.2891V36.5728C85.8669 36.6636 86.1349 36.7485 86.4513 36.8276C86.7677 36.9038 87.0988 36.9419 87.4445 36.9419C87.7668 36.9419 88.0392 36.8994 88.2619 36.8145C88.4845 36.7266 88.653 36.6021 88.7672 36.4409C88.8844 36.2769 88.943 36.0806 88.943 35.8521C88.943 35.6323 88.8947 35.4492 88.798 35.3027C88.7013 35.1533 88.5402 35.0186 88.3146 34.8984C88.092 34.7754 87.7873 34.645 87.4005 34.5073C87.1281 34.4106 86.8879 34.3052 86.6798 34.1909C86.4718 34.0737 86.2975 33.9419 86.1569 33.7954C86.0163 33.6489 85.9093 33.479 85.8361 33.2856C85.7658 33.0923 85.7306 32.8711 85.7306 32.6221C85.7306 32.2793 85.8171 31.9863 85.9899 31.7432C86.1657 31.4971 86.4074 31.3096 86.715 31.1807C87.0255 31.0488 87.3815 30.9829 87.7829 30.9829C88.1256 30.9829 88.4421 31.0151 88.7321 31.0796C89.0251 31.144 89.2931 31.2305 89.5363 31.3389L89.3034 31.9805C89.0719 31.8838 88.8258 31.8032 88.5651 31.7388C88.3073 31.6743 88.0407 31.6421 87.7653 31.6421C87.4899 31.6421 87.257 31.6831 87.0666 31.7651C86.8791 31.8442 86.7355 31.957 86.6359 32.1035C86.5363 32.25 86.4865 32.4243 86.4865 32.6265C86.4865 32.8521 86.5334 33.0396 86.6271 33.189C86.7238 33.3384 86.8761 33.4717 87.0841 33.5889C87.2951 33.7031 87.5734 33.8232 87.9191 33.9492C88.297 34.0869 88.6178 34.2334 88.8815 34.3887C89.1452 34.541 89.3459 34.7285 89.4836 34.9512C89.6213 35.1709 89.6901 35.4507 89.6901 35.7905ZM94.6872 37.5H93.9357V31.7344H91.9143V31.0752H96.6999V31.7344H94.6872V37.5ZM104.241 31.0752V35.2324C104.241 35.6865 104.149 36.0908 103.965 36.4453C103.783 36.7998 103.508 37.0796 103.138 37.2847C102.769 37.4868 102.306 37.5879 101.75 37.5879C100.956 37.5879 100.351 37.3726 99.9348 36.9419C99.5217 36.5112 99.3152 35.9355 99.3152 35.2148V31.0752H100.067V35.2368C100.067 35.7817 100.21 36.2021 100.497 36.498C100.787 36.7939 101.219 36.9419 101.794 36.9419C102.186 36.9419 102.507 36.8716 102.756 36.731C103.008 36.5874 103.194 36.3882 103.314 36.1333C103.437 35.8755 103.499 35.5781 103.499 35.2412V31.0752H104.241ZM112.759 34.2261C112.759 34.9497 112.627 35.5547 112.363 36.041C112.099 36.5244 111.717 36.8892 111.216 37.1353C110.718 37.3784 110.113 37.5 109.401 37.5H107.657V31.0752H109.595C110.248 31.0752 110.81 31.1953 111.282 31.4355C111.754 31.6729 112.117 32.0259 112.372 32.4946C112.63 32.9604 112.759 33.5376 112.759 34.2261ZM111.972 34.2524C111.972 33.6753 111.875 33.1992 111.682 32.8242C111.491 32.4492 111.21 32.1709 110.838 31.9893C110.469 31.8047 110.016 31.7124 109.48 31.7124H108.404V36.8584H109.313C110.198 36.8584 110.862 36.6401 111.304 36.2036C111.749 35.7671 111.972 35.1167 111.972 34.2524ZM115.897 37.5V31.0752H116.644V37.5H115.897ZM125.693 34.2788C125.693 34.7739 125.63 35.2251 125.504 35.6323C125.378 36.0366 125.19 36.3853 124.941 36.6782C124.695 36.9683 124.389 37.1924 124.023 37.3506C123.657 37.5088 123.232 37.5879 122.748 37.5879C122.25 37.5879 121.815 37.5088 121.443 37.3506C121.074 37.1924 120.766 36.9668 120.52 36.6738C120.277 36.3809 120.094 36.0308 119.971 35.6235C119.851 35.2163 119.791 34.7651 119.791 34.27C119.791 33.6138 119.899 33.0381 120.116 32.543C120.333 32.0479 120.661 31.6626 121.1 31.3872C121.543 31.1118 122.097 30.9741 122.762 30.9741C123.397 30.9741 123.932 31.1104 124.366 31.3828C124.802 31.6553 125.132 32.0391 125.354 32.5342C125.58 33.0264 125.693 33.6079 125.693 34.2788ZM120.577 34.2788C120.577 34.8237 120.655 35.2954 120.81 35.6938C120.966 36.0923 121.203 36.3999 121.522 36.6167C121.845 36.8335 122.253 36.9419 122.748 36.9419C123.246 36.9419 123.654 36.8335 123.97 36.6167C124.289 36.3999 124.525 36.0923 124.678 35.6938C124.83 35.2954 124.906 34.8237 124.906 34.2788C124.906 33.4497 124.732 32.8022 124.383 32.3364C124.037 31.8677 123.497 31.6333 122.762 31.6333C122.264 31.6333 121.853 31.7402 121.531 31.9541C121.209 32.168 120.969 32.4727 120.81 32.8682C120.655 33.2607 120.577 33.731 120.577 34.2788Z" fill="#FEFEFF"/>
<path d="M65.7583 18.9404C65.7583 19.9137 65.5225 20.7598 65.0508 21.4785C64.5791 22.1973 63.8903 22.7513 62.9844 23.1406C62.0859 23.5299 60.9928 23.7246 59.7051 23.7246C59.1361 23.7246 58.5783 23.6872 58.0317 23.6123C57.4927 23.5374 56.9723 23.4289 56.4707 23.2866C55.9766 23.1369 55.5049 22.9535 55.0557 22.7363V19.502C55.8343 19.8464 56.6429 20.1571 57.4814 20.4341C58.32 20.7111 59.151 20.8496 59.9746 20.8496C60.5436 20.8496 61.0003 20.7747 61.3447 20.625C61.6966 20.4753 61.9512 20.2694 62.1084 20.0073C62.2656 19.7453 62.3442 19.4458 62.3442 19.1089C62.3442 18.6971 62.2057 18.3452 61.9287 18.0532C61.6517 17.7612 61.2699 17.488 60.7832 17.2334C60.304 16.9788 59.7612 16.7056 59.1548 16.4136C58.7729 16.2339 58.3574 16.0168 57.9082 15.7622C57.459 15.5002 57.0322 15.182 56.6279 14.8076C56.2236 14.4333 55.8905 13.9803 55.6284 13.4487C55.3739 12.9097 55.2466 12.2658 55.2466 11.5171C55.2466 10.5363 55.4712 9.69775 55.9204 9.00146C56.3696 8.30518 57.0098 7.7736 57.8408 7.40674C58.6794 7.03239 59.6676 6.84521 60.8057 6.84521C61.6592 6.84521 62.4715 6.94629 63.2427 7.14844C64.0213 7.3431 64.8337 7.6276 65.6797 8.00195L64.5566 10.7085C63.8005 10.4015 63.1229 10.1657 62.5239 10.001C61.925 9.82878 61.3148 9.74268 60.6934 9.74268C60.2591 9.74268 59.8885 9.8138 59.5815 9.95605C59.2746 10.0908 59.0425 10.2855 58.8853 10.54C58.728 10.7871 58.6494 11.0754 58.6494 11.4048C58.6494 11.7941 58.7617 12.1235 58.9863 12.3931C59.2184 12.6551 59.5628 12.9097 60.0195 13.1567C60.4837 13.4038 61.0602 13.6921 61.749 14.0215C62.5876 14.4183 63.3026 14.8338 63.894 15.2681C64.493 15.6948 64.9535 16.2002 65.2754 16.7842C65.5973 17.3607 65.7583 18.0794 65.7583 18.9404ZM83.7163 18.9404C83.7163 19.9137 83.4804 20.7598 83.0088 21.4785C82.5371 22.1973 81.8483 22.7513 80.9423 23.1406C80.0439 23.5299 78.9508 23.7246 77.663 23.7246C77.094 23.7246 76.5363 23.6872 75.9897 23.6123C75.4506 23.5374 74.9303 23.4289 74.4287 23.2866C73.9345 23.1369 73.4629 22.9535 73.0136 22.7363V19.502C73.7923 19.8464 74.6009 20.1571 75.4394 20.4341C76.278 20.7111 77.109 20.8496 77.9326 20.8496C78.5016 20.8496 78.9583 20.7747 79.3027 20.625C79.6546 20.4753 79.9091 20.2694 80.0664 20.0073C80.2236 19.7453 80.3022 19.4458 80.3022 19.1089C80.3022 18.6971 80.1637 18.3452 79.8867 18.0532C79.6097 17.7612 79.2278 17.488 78.7412 17.2334C78.262 16.9788 77.7192 16.7056 77.1128 16.4136C76.7309 16.2339 76.3154 16.0168 75.8662 15.7622C75.417 15.5002 74.9902 15.182 74.5859 14.8076C74.1816 14.4333 73.8484 13.9803 73.5864 13.4487C73.3318 12.9097 73.2046 12.2658 73.2046 11.5171C73.2046 10.5363 73.4292 9.69775 73.8784 9.00146C74.3276 8.30518 74.9677 7.7736 75.7988 7.40674C76.6373 7.03239 77.6256 6.84521 78.7636 6.84521C79.6171 6.84521 80.4295 6.94629 81.2006 7.14844C81.9793 7.3431 82.7916 7.6276 83.6377 8.00195L82.5146 10.7085C81.7584 10.4015 81.0809 10.1657 80.4819 10.001C79.8829 9.82878 79.2727 9.74268 78.6513 9.74268C78.2171 9.74268 77.8465 9.8138 77.5395 9.95605C77.2325 10.0908 77.0005 10.2855 76.8432 10.54C76.686 10.7871 76.6074 11.0754 76.6074 11.4048C76.6074 11.7941 76.7197 12.1235 76.9443 12.3931C77.1764 12.6551 77.5208 12.9097 77.9775 13.1567C78.4417 13.4038 79.0182 13.6921 79.707 14.0215C80.5455 14.4183 81.2605 14.8338 81.852 15.2681C82.451 15.6948 82.9114 16.2002 83.2334 16.7842C83.5553 17.3607 83.7163 18.0794 83.7163 18.9404ZM102.034 23.5L100.843 19.5918H94.8573L93.6669 23.5H89.9159L95.7109 7.01367H99.9672L105.785 23.5H102.034ZM100.012 16.6719L98.8217 12.8535C98.7468 12.599 98.6458 12.2733 98.5185 11.8765C98.3987 11.4722 98.2752 11.0641 98.1479 10.6523C98.0281 10.2331 97.9308 9.86995 97.8559 9.56299C97.781 9.86995 97.6762 10.2518 97.5414 10.7085C97.4141 11.1577 97.2906 11.5845 97.1708 11.9888C97.051 12.3931 96.9649 12.6813 96.9125 12.8535L95.7333 16.6719H100.012ZM118.397 7.08105C120.516 7.08105 122.062 7.53776 123.035 8.45117C124.008 9.3571 124.495 10.6074 124.495 12.2021C124.495 12.9209 124.386 13.6097 124.169 14.2686C123.952 14.9199 123.597 15.5002 123.102 16.0093C122.616 16.5184 121.964 16.9227 121.148 17.2222C120.332 17.5142 119.325 17.6602 118.127 17.6602H116.634V23.5H113.152V7.08105H118.397ZM118.217 9.93359H116.634V14.8076H117.779C118.431 14.8076 118.996 14.7215 119.475 14.5493C119.954 14.3771 120.325 14.1076 120.587 13.7407C120.849 13.3739 120.98 12.9022 120.98 12.3257C120.98 11.5171 120.755 10.9181 120.306 10.5288C119.857 10.132 119.161 9.93359 118.217 9.93359Z" fill="#FEFEFF"/>
</svg>
