<svg width="16" height="16" viewBox="0 0 16 16" fill="none" xmlns="http://www.w3.org/2000/svg">
<path d="M13 7.41406V13.5C13 13.8978 12.842 14.2794 12.5607 14.5607C12.2794 14.842 11.8978 15 11.5 15H4.5C4.10218 15 3.72064 14.842 3.43934 14.5607C3.15804 14.2794 3 13.8978 3 13.5V3.5C3 3.10218 3.15804 2.72064 3.43934 2.43934C3.72064 2.15804 4.10218 2 4.5 2H7.58594C7.85106 2.00004 8.10532 2.10536 8.29281 2.29281L12.7072 6.70719C12.8946 6.89468 13 7.14894 13 7.41406Z" stroke="#44ABA6" stroke-linejoin="round"/>
<path d="M8 1.75V5.5C8 5.76522 8.10536 6.01957 8.29289 6.20711C8.48043 6.39464 8.73478 6.5 9 6.5H12.75M5.5 9H10.5M5.5 11.5H10.5" stroke="#44ABA6" stroke-linecap="round" stroke-linejoin="round"/>
</svg>
