<svg width="15" height="16" viewBox="0 0 15 16" fill="none" xmlns="http://www.w3.org/2000/svg">
<path d="M12.8793 12.5947C12.4673 12.0232 11.3944 11.1145 10.8644 10.7329C10.1742 10.2363 10.1173 10.1957 9.45844 10.5403C9.01891 10.7703 8.71612 10.99 8.27145 10.8189C7.82679 10.6479 6.91438 9.9361 6.17695 8.92458C5.43952 7.91305 5.01697 6.79131 4.99115 6.31708C4.96533 5.84284 5.27169 5.62656 5.62364 5.27828C6.11968 4.78736 6.10348 4.68988 5.87348 3.88464C5.69394 3.25824 5.13848 1.96485 4.72001 1.39869C4.27268 0.790941 4.25802 0.883533 3.89385 0.971389C3.59714 1.04436 3.30773 1.14435 3.02926 1.27011C2.48344 1.51997 2.16619 1.74909 1.90964 2.1283C1.6531 2.5075 1.4149 3.45404 2.11998 5.40895C2.82506 7.36387 3.37392 8.3933 4.58433 10.0543C5.79475 11.7153 6.778 12.661 8.25031 13.8231C10.0719 15.2591 10.8732 15.1624 11.3143 15.0361C11.7554 14.9098 12.0722 14.6815 12.4792 14.2398C12.6852 14.0143 12.87 13.7703 13.0312 13.511C13.2275 13.1931 13.32 13.2077 12.8793 12.5947Z" stroke="#44ABA6" stroke-width="1.3" stroke-miterlimit="10"/>
</svg>
