<svg width="41" height="40" viewBox="0 0 41 40" fill="none" xmlns="http://www.w3.org/2000/svg">
<circle cx="20.5" cy="20" r="20" fill="#A9DEDD"/>
<circle cx="20.5" cy="20" r="18" fill="#44ABA6"/>
<path d="M14.3125 18.4531V26.75C14.3125 26.8992 14.3718 27.0423 14.4773 27.1477C14.5827 27.2532 14.7258 27.3125 14.875 27.3125H18.25V22.5313C18.25 22.3075 18.3389 22.0929 18.4971 21.9346C18.6554 21.7764 18.87 21.6875 19.0938 21.6875H21.9063C22.13 21.6875 22.3446 21.7764 22.5029 21.9346C22.6611 22.0929 22.75 22.3075 22.75 22.5313V27.3125H26.125C26.2742 27.3125 26.4173 27.2532 26.5227 27.1477C26.6282 27.0423 26.6875 26.8992 26.6875 26.75V18.4531" stroke="#F9F8F8" stroke-width="0.84375" stroke-linecap="round" stroke-linejoin="round"/>
<path d="M28.375 19.9999L20.8829 12.828C20.7071 12.6424 20.2961 12.6403 20.1171 12.828L12.625 19.9999M25.5625 17.2928V13.2499H23.875V15.6757" stroke="#F9F8F8" stroke-width="0.84375" stroke-linecap="round" stroke-linejoin="round"/>
</svg>
