<svg width="10" height="11" viewBox="0 0 10 11" fill="none" xmlns="http://www.w3.org/2000/svg">
<path d="M10 9.6346L7.01731 6.65143C7.49798 5.99088 7.75656 5.1948 7.75577 4.37787C7.75577 2.23965 6.01611 0.499985 3.87788 0.499985C1.73966 0.499985 0 2.23965 0 4.37787C0 6.51609 1.73966 8.25575 3.87788 8.25575C4.69481 8.25654 5.4909 7.99797 6.15144 7.51729L9.13462 10.5L10 9.6346ZM3.87788 7.03099C3.35308 7.03104 2.84004 6.87546 2.40366 6.58392C1.96728 6.29239 1.62716 5.87799 1.4263 5.39314C1.22544 4.90829 1.17288 4.37477 1.27525 3.86004C1.37762 3.34532 1.63034 2.87251 2.00143 2.50142C2.37253 2.13032 2.84533 1.87761 3.36006 1.77524C3.87478 1.67286 4.40831 1.72543 4.89315 1.92629C5.378 2.12714 5.7924 2.46727 6.08394 2.90365C6.37547 3.34003 6.53106 3.85306 6.53101 4.37787C6.53018 5.08127 6.25039 5.75562 5.75301 6.253C5.25564 6.75038 4.58128 7.03017 3.87788 7.03099Z" fill="#F9F8F8"/>
</svg>
