<svg width="17" height="17" viewBox="0 0 17 17" fill="none" xmlns="http://www.w3.org/2000/svg">
<path d="M7.09791 5.51296C7.12 5.50324 7.14418 5.49922 7.16823 5.50128C7.19228 5.50334 7.21542 5.51142 7.23553 5.52476C7.25564 5.5381 7.27208 5.55628 7.28333 5.57764C7.29458 5.59899 7.30028 5.62283 7.29991 5.64696V6.79996C7.29991 6.93257 7.35259 7.05974 7.44636 7.15351C7.54013 7.24728 7.6673 7.29996 7.79991 7.29996C8.46691 7.29996 9.81291 7.30496 11.0999 8.12196C12.0839 8.74596 13.0899 9.88196 13.6949 11.998C12.6749 11.015 11.5099 10.482 10.4899 10.199C9.86296 10.0258 9.21864 9.92316 8.56891 9.89296C8.30296 9.88128 8.03658 9.88395 7.77091 9.90096H7.75791L7.75291 9.90196L7.79991 10.4L7.74991 9.90196C7.6265 9.91436 7.51209 9.9722 7.42893 10.0642C7.34577 10.1563 7.29979 10.2759 7.29991 10.4V11.553C7.29991 11.661 7.18991 11.729 7.09791 11.687L3.11391 8.75396C3.10039 8.74393 3.08637 8.73458 3.07191 8.72596C3.05017 8.71289 3.03218 8.69442 3.01969 8.67234C3.00719 8.65026 3.00063 8.62533 3.00063 8.59996C3.00063 8.57459 3.00719 8.54965 3.01969 8.52758C3.03218 8.5055 3.05017 8.48703 3.07191 8.47396C3.08638 8.46534 3.10039 8.456 3.11391 8.44596L7.09791 5.51296ZM8.29991 10.886C8.36791 10.886 8.44291 10.889 8.52291 10.892C8.95691 10.912 9.55691 10.978 10.2229 11.163C11.5489 11.531 13.1189 12.365 14.1629 14.243C14.2194 14.3443 14.3093 14.4229 14.4174 14.4652C14.5254 14.5076 14.6448 14.511 14.7551 14.4749C14.8654 14.4389 14.9597 14.3656 15.0219 14.2676C15.0841 14.1697 15.1102 14.0531 15.0959 13.938C14.6319 10.228 13.2099 8.27596 11.6359 7.27796C10.3909 6.48796 9.10891 6.33596 8.29991 6.30696V5.64696C8.30001 5.44103 8.24451 5.23889 8.13928 5.06187C8.03405 4.88486 7.883 4.73953 7.70204 4.64122C7.52109 4.54291 7.31696 4.49527 7.11119 4.50332C6.90542 4.51137 6.70563 4.57481 6.53291 4.68696L2.53891 7.62696C2.37379 7.73003 2.23762 7.87342 2.14321 8.04364C2.0488 8.21386 1.99927 8.40531 1.99927 8.59996C1.99927 8.79461 2.0488 8.98605 2.14321 9.15627C2.23762 9.32649 2.37379 9.46989 2.53891 9.57296L6.53291 12.513C6.70563 12.6251 6.90542 12.6886 7.11119 12.6966C7.31696 12.7047 7.52109 12.657 7.70204 12.5587C7.883 12.4604 8.03405 12.3151 8.13928 12.138C8.24451 11.961 8.30001 11.7589 8.29991 11.553V10.886Z" fill="#F9F8F8"/>
</svg>
