<svg width="19" height="16" viewBox="0 0 19 16" fill="none" xmlns="http://www.w3.org/2000/svg">
<g clip-path="url(#clip0_296_988)">
<path d="M11.5372 11.4086V13.1241C11.5372 13.5791 11.3565 14.0155 11.0347 14.3372C10.713 14.659 10.2767 14.8397 9.82165 14.8397H2.95935C2.50435 14.8397 2.06799 14.659 1.74625 14.3372C1.42452 14.0155 1.24377 13.5791 1.24377 13.1241V2.83069C1.24377 2.37569 1.42452 1.93933 1.74625 1.61759C2.06799 1.29586 2.50435 1.11511 2.95935 1.11511H9.47854C10.426 1.11511 11.5372 1.88326 11.5372 2.83069V4.54626M14.2821 11.4086L17.7133 7.97741L14.2821 4.54626M6.04739 7.97741H17.0271" stroke="#F9F8F8" stroke-width="1.37246" stroke-linecap="round" stroke-linejoin="round"/>
</g>
<defs>
<clipPath id="clip0_296_988">
<rect width="19" height="15.9549" fill="white"/>
</clipPath>
</defs>
</svg>
