<svg width="14" height="14" viewBox="0 0 14 14" fill="none" xmlns="http://www.w3.org/2000/svg">
<g clip-path="url(#clip0_330_1571)">
<path d="M3.9375 7.875C3.12527 7.875 2.34632 8.19766 1.77199 8.77199C1.19766 9.34632 0.875 10.1253 0.875 10.9375C0.875 11.7497 1.19766 12.5287 1.77199 13.103C2.34632 13.6773 3.12527 14 3.9375 14H10.0625C10.8747 14 11.6537 13.6773 12.228 13.103C12.8023 12.5287 13.125 11.7497 13.125 10.9375C13.125 10.1253 12.8023 9.34632 12.228 8.77199C11.6537 8.19766 10.8747 7.875 10.0625 7.875H3.9375ZM10.0625 13.125C9.48234 13.125 8.92594 12.8945 8.5157 12.4843C8.10547 12.0741 7.875 11.5177 7.875 10.9375C7.875 10.3573 8.10547 9.80094 8.5157 9.3907C8.92594 8.98047 9.48234 8.75 10.0625 8.75C10.6427 8.75 11.1991 8.98047 11.6093 9.3907C12.0195 9.80094 12.25 10.3573 12.25 10.9375C12.25 11.5177 12.0195 12.0741 11.6093 12.4843C11.1991 12.8945 10.6427 13.125 10.0625 13.125ZM3.9375 0.875C3.35734 0.875 2.80094 1.10547 2.3907 1.5157C1.98047 1.92594 1.75 2.48234 1.75 3.0625C1.75 3.64266 1.98047 4.19906 2.3907 4.6093C2.80094 5.01953 3.35734 5.25 3.9375 5.25C4.51766 5.25 5.07406 5.01953 5.4843 4.6093C5.89453 4.19906 6.125 3.64266 6.125 3.0625C6.125 2.48234 5.89453 1.92594 5.4843 1.5157C5.07406 1.10547 4.51766 0.875 3.9375 0.875ZM6.08125 0.875C6.37259 1.15988 6.60397 1.50019 6.76176 1.87588C6.91954 2.25156 7.00055 2.65502 7 3.0625C7.00055 3.46998 6.91954 3.87344 6.76176 4.24912C6.60397 4.62481 6.37259 4.96512 6.08125 5.25H10.0625C10.6427 5.25 11.1991 5.01953 11.6093 4.6093C12.0195 4.19906 12.25 3.64266 12.25 3.0625C12.25 2.48234 12.0195 1.92594 11.6093 1.5157C11.1991 1.10547 10.6427 0.875 10.0625 0.875H6.08125ZM3.9375 0H10.0625C10.8747 0 11.6537 0.322655 12.228 0.896985C12.8023 1.47132 13.125 2.25027 13.125 3.0625C13.125 3.87473 12.8023 4.65368 12.228 5.22801C11.6537 5.80234 10.8747 6.125 10.0625 6.125H3.9375C3.12527 6.125 2.34632 5.80234 1.77199 5.22801C1.19766 4.65368 0.875 3.87473 0.875 3.0625C0.875 2.25027 1.19766 1.47132 1.77199 0.896985C2.34632 0.322655 3.12527 0 3.9375 0Z" fill="#9090A4"/>
</g>
<defs>
<clipPath id="clip0_330_1571">
<rect width="14" height="14" fill="white"/>
</clipPath>
</defs>
</svg>
