<svg width="41" height="41" viewBox="0 0 41 41" fill="none" xmlns="http://www.w3.org/2000/svg">
<circle cx="20.3867" cy="20.2419" r="20" fill="#A9DEDD"/>
<circle cx="20.3862" cy="20.2419" r="18" fill="#44ABA6"/>
<path d="M23.1231 16.0916C22.9779 18.0507 21.4927 19.6489 19.8622 19.6489C18.2317 19.6489 16.7439 18.0511 16.6013 16.0916C16.453 14.0535 17.8982 12.5342 19.8622 12.5342C21.8262 12.5342 23.2714 14.0905 23.1231 16.0916Z" stroke="#F9F8F8" stroke-width="0.875" stroke-linecap="round" stroke-linejoin="round"/>
<path d="M19.8624 22.0206C16.6385 22.0206 13.3665 23.7993 12.761 27.1566C12.688 27.5612 12.917 27.9496 13.3405 27.9496H26.3843C26.8082 27.9496 27.0372 27.5612 26.9642 27.1566C26.3583 23.7993 23.0863 22.0206 19.8624 22.0206Z" stroke="#F9F8F8" stroke-width="0.875" stroke-miterlimit="10"/>
</svg>
