<svg width="12" height="12" viewBox="0 0 12 12" fill="none" xmlns="http://www.w3.org/2000/svg">
<path d="M6 6C6.69619 6 7.36387 5.72344 7.85616 5.23116C8.34844 4.73887 8.625 4.07119 8.625 3.375C8.625 2.67881 8.34844 2.01113 7.85616 1.51884C7.36387 1.02656 6.69619 0.75 6 0.75C5.30381 0.75 4.63613 1.02656 4.14384 1.51884C3.65156 2.01113 3.375 2.67881 3.375 3.375C3.375 4.07119 3.65156 4.73887 4.14384 5.23116C4.63613 5.72344 5.30381 6 6 6ZM7.75 3.375C7.75 3.83913 7.56563 4.28425 7.23744 4.61244C6.90925 4.94063 6.46413 5.125 6 5.125C5.53587 5.125 5.09075 4.94063 4.76256 4.61244C4.43437 4.28425 4.25 3.83913 4.25 3.375C4.25 2.91087 4.43437 2.46575 4.76256 2.13756C5.09075 1.80937 5.53587 1.625 6 1.625C6.46413 1.625 6.90925 1.80937 7.23744 2.13756C7.56563 2.46575 7.75 2.91087 7.75 3.375ZM11.25 10.375C11.25 11.25 10.375 11.25 10.375 11.25H1.625C1.625 11.25 0.75 11.25 0.75 10.375C0.75 9.5 1.625 6.875 6 6.875C10.375 6.875 11.25 9.5 11.25 10.375ZM10.375 10.3715C10.3741 10.1562 10.2403 9.50875 9.647 8.9155C9.0765 8.345 8.00287 7.75 6 7.75C3.99625 7.75 2.9235 8.345 2.353 8.9155C1.75975 9.50875 1.62675 10.1562 1.625 10.3715H10.375Z" fill="#9090A4"/>
</svg>
